name Walk9.mot
datacolumns 19
datarows 30
range 1.00500000 1.15000000
endheader

                time	   L_ground_force_vx	   L_ground_force_vy	   L_ground_force_vz	   L_ground_force_px	   L_ground_force_py	   L_ground_force_pz	   R_ground_force_vx	   R_ground_force_vy	   R_ground_force_vz	   R_ground_force_px	   R_ground_force_py	   R_ground_force_pz	   L_ground_torque_x	   L_ground_torque_y	   L_ground_torque_z	   R_ground_torque_x	   R_ground_torque_y	   R_ground_torque_z	
          1.00500000	         -0.00000000	          0.00000000	          0.00000000	          0.00000000	          0.00000000	          0.00000000	        -11.95785589	         23.34885127	         -1.02203965	         -0.14328956	          0.00000000	          0.15013345	          0.00000000	         -0.00000000	          0.00000000	          0.00000000	          0.11574233	          0.00000000	
          1.01000000	          0.00000000	          0.00000000	         -0.00000000	          0.00000000	          0.00000000	          0.00000000	        -36.89534350	        141.47430737	          3.13553880	         -0.28274613	          0.00000000	          0.29291297	          0.00000000	         -0.00000000	          0.00000000	          0.00000000	          0.30105675	          0.00000000	
          1.01500000	          0.00000000	          0.00000000	         -0.00000000	         -0.00000000	          0.00000000	         -0.00000000	        -52.62950822	        308.51468840	         18.05277367	         -0.31603864	          0.00000000	          0.32493310	          0.00000000	         -0.00000000	          0.00000000	          0.00000000	          0.38013094	          0.00000000	
          1.02000000	          0.00000000	         -0.00000000	          0.00000000	         -0.00000000	          0.00000000	         -0.00000000	        -50.76462454	        410.73182687	         38.70536065	         -0.30856474	          0.00000000	          0.31754515	          0.00000000	          0.00000000	          0.00000000	          0.00000000	          0.23522444	          0.00000000	
          1.02500000	         -0.00000000	         -0.00000000	          0.00000000	         -0.00000000	          0.00000000	         -0.00000000	        -46.02230283	        446.27557078	         53.03149589	         -0.30100777	          0.00000000	          0.31148446	          0.00000000	          0.00000000	          0.00000000	          0.00000000	         -0.06984191	          0.00000000	
          1.03000000	         -0.00000000	         -0.00000000	          0.00000000	          0.00000000	          0.00000000	          0.00000000	        -49.51226275	        485.76111275	         57.17603541	         -0.29780379	          0.00000000	          0.31049447	          0.00000000	          0.00000000	          0.00000000	          0.00000000	         -0.29428871	          0.00000000	
          1.03500000	          0.00000000	          0.00000000	         -0.00000000	          0.00000000	          0.00000000	          0.00000000	        -64.88155316	        533.27516583	         53.32582661	         -0.29560884	          0.00000000	          0.31132273	          0.00000000	         -0.00000000	          0.00000000	          0.00000000	         -0.33031557	          0.00000000	
          1.04000000	          0.00000000	          0.00000000	         -0.00000000	          0.00000000	          0.00000000	          0.00000000	        -88.75858893	        558.55200765	         43.68937006	         -0.29234975	          0.00000000	          0.31237191	          0.00000000	         -0.00000000	          0.00000000	          0.00000000	         -0.00993347	          0.00000000	
          1.04500000	          0.00000000	          0.00000000	         -0.00000000	         -0.00000000	          0.00000000	         -0.00000000	       -110.82941424	        570.85349336	         26.54139786	         -0.28655280	          0.00000000	          0.31407430	          0.00000000	          0.00000000	          0.00000000	          0.00000000	          0.97112348	          0.00000000	
          1.05000000	         -0.00000000	         -0.00000000	          0.00000000	         -0.00000000	          0.00000000	         -0.00000000	       -125.36186351	        600.50884425	          0.15118946	         -0.27859058	          0.00000000	          0.31658505	          0.00000000	          0.00000000	          0.00000000	          0.00000000	          2.47865170	          0.00000000	
          1.05500000	         -0.00000000	         -0.00000000	          0.00000000	         -0.00000000	          0.00000000	         -0.00000000	       -136.77838748	        644.36901645	        -28.41459533	         -0.27117766	          0.00000000	          0.31887635	          0.00000000	          0.00000000	          0.00000000	          0.00000000	          3.85938900	          0.00000000	
          1.06000000	         -0.00000000	          0.00000000	          0.00000000	          0.00000000	          0.00000000	          0.00000000	       -149.41443757	        671.50181352	        -45.30045254	         -0.26602552	          0.00000000	          0.32038119	          0.00000000	         -0.00000000	          0.00000000	          0.00000000	          4.30391796	          0.00000000	
          1.06500000	          0.00000000	          0.00000000	         -0.00000000	          0.00000000	          0.00000000	          0.00000000	       -160.57434761	        675.74342900	        -48.14515295	         -0.26210511	          0.00000000	          0.32078576	          0.00000000	         -0.00000000	          0.00000000	          0.00000000	          3.66704270	          0.00000000	
          1.07000000	          0.00000000	          0.00000000	         -0.00000000	         -0.00000000	          0.00000000	         -0.00000000	       -167.04111362	        681.55374960	        -47.19935872	         -0.25800521	          0.00000000	          0.32079329	          0.00000000	         -0.00000000	          0.00000000	          0.00000000	          2.62673662	          0.00000000	
          1.07500000	          0.00000000	         -0.00000000	         -0.00000000	         -0.00000000	          0.00000000	         -0.00000000	       -170.92450126	        702.57676286	        -47.86068676	         -0.25418417	          0.00000000	          0.32096718	          0.00000000	          0.00000000	          0.00000000	          0.00000000	          1.76382762	          0.00000000	
          1.08000000	         -0.00000000	         -0.00000000	          0.00000000	         -0.00000000	          0.00000000	         -0.00000000	       -174.75936192	        728.23537434	        -49.01858248	         -0.25149333	          0.00000000	          0.32113895	          0.00000000	          0.00000000	          0.00000000	          0.00000000	          1.42852414	          0.00000000	
          1.08500000	         -0.00000000	         -0.00000000	          0.00000000	          0.00000000	          0.00000000	          0.00000000	       -177.95769675	        751.84488515	        -50.42233541	         -0.24975449	          0.00000000	          0.32121727	          0.00000000	          0.00000000	          0.00000000	          0.00000000	          1.59088108	          0.00000000	
          1.09000000	         -0.00000000	          0.00000000	         -0.00000000	          0.00000000	          0.00000000	          0.00000000	       -178.89663575	        779.88013890	        -51.27155622	         -0.24855911	          0.00000000	          0.32089511	          0.00000000	         -0.00000000	          0.00000000	          0.00000000	          1.79422202	          0.00000000	
          1.09500000	          0.00000000	          0.00000000	         -0.00000000	          0.00000000	          0.00000000	          0.00000000	       -176.40771891	        814.47353698	        -48.64426491	         -0.24787785	          0.00000000	          0.32017414	          0.00000000	         -0.00000000	          0.00000000	          0.00000000	          1.69329395	          0.00000000	
          1.10000000	          0.00000000	          0.00000000	         -0.00000000	         -0.00000000	          0.00000000	         -0.00000000	       -170.44229590	        849.10332280	        -41.10546633	         -0.24772533	          0.00000000	          0.31936660	          0.00000000	          0.00000000	          0.00000000	          0.00000000	          1.29563328	          0.00000000	
          1.10500000	         -0.00000000	         -0.00000000	          0.00000000	         -0.00000000	          0.00000000	         -0.00000000	       -162.27582050	        877.78059218	        -30.62403080	         -0.24785767	          0.00000000	          0.31855597	          0.00000000	          0.00000000	          0.00000000	          0.00000000	          0.82518415	          0.00000000	
          1.11000000	         -0.00000000	         -0.00000000	          0.00000000	         -0.00000000	          0.00000000	         -0.00000000	       -153.83691083	        898.28929259	        -20.41406768	         -0.24797109	          0.00000000	          0.31795563	          0.00000000	          0.00000000	          0.00000000	          0.00000000	          0.48742812	          0.00000000	
          1.11500000	         -0.00000000	         -0.00000000	          0.00000000	          0.00000000	          0.00000000	          0.00000000	       -146.83160925	        911.04924012	        -12.48280356	         -0.24788295	          0.00000000	          0.31747295	          0.00000000	         -0.00000000	          0.00000000	          0.00000000	          0.29015458	          0.00000000	
          1.12000000	          0.00000000	          0.00000000	         -0.00000000	          0.00000000	          0.00000000	          0.00000000	       -141.32163600	        916.95510799	         -7.29191484	         -0.24737820	          0.00000000	          0.31704230	          0.00000000	         -0.00000000	          0.00000000	          0.00000000	          0.21525270	          0.00000000	
          1.12500000	          0.00000000	          0.00000000	         -0.00000000	         -0.00000000	          0.00000000	         -0.00000000	       -135.49555472	        916.95626949	         -4.14539994	         -0.24662800	          0.00000000	          0.31677531	          0.00000000	         -0.00000000	          0.00000000	          0.00000000	          0.14407741	          0.00000000	
          1.13000000	          0.00000000	         -0.00000000	         -0.00000000	         -0.00000000	          0.00000000	         -0.00000000	       -127.95657482	        912.67546045	         -2.19122333	         -0.24592510	          0.00000000	          0.31647087	          0.00000000	          0.00000000	          0.00000000	          0.00000000	         -0.03466913	          0.00000000	
          1.13500000	         -0.00000000	         -0.00000000	          0.00000000	         -0.00000000	          0.00000000	         -0.00000000	       -119.36325730	        905.15056786	         -1.34462694	         -0.24517898	          0.00000000	          0.31635379	          0.00000000	          0.00000000	          0.00000000	          0.00000000	         -0.26210704	          0.00000000	
          1.14000000	         -0.00000000	         -0.00000000	          0.00000000	          0.00000000	          0.00000000	          0.00000000	       -111.68609160	        893.85113134	         -2.16285835	         -0.24429466	          0.00000000	          0.31659889	          0.00000000	          0.00000000	          0.00000000	          0.00000000	         -0.49373356	          0.00000000	
          1.14500000	         -0.00000000	          0.00000000	          0.00000000	          0.00000000	          0.00000000	          0.00000000	       -105.92959006	        877.64144809	         -4.83104656	         -0.24321618	          0.00000000	          0.31702369	          0.00000000	         -0.00000000	          0.00000000	          0.00000000	         -0.63630201	          0.00000000	
          1.15000000	          0.00000000	          0.00000000	         -0.00000000	          0.00000000	          0.00000000	          0.00000000	       -101.28743631	        856.28566456	         -8.54256417	         -0.24180886	          0.00000000	          0.31745254	          0.00000000	         -0.00000000	          0.00000000	          0.00000000	         -0.65665176	          0.00000000	
